<mxfile host="Electron" modified="2023-12-27T13:00:28.128Z" agent="Mozilla/5.0 (X11; Linux x86_64) AppleWebKit/537.36 (KHTML, like Gecko) draw.io/22.1.11 Chrome/114.0.5735.289 Electron/25.9.8 Safari/537.36" etag="_glOKrSJaDBmknSsmUSX" version="22.1.11" type="device">
  <diagram id="C5RBs43oDa-KdzZeNtuy" name="Page-1">
    <mxGraphModel dx="1658" dy="943" grid="1" gridSize="10" guides="1" tooltips="1" connect="1" arrows="1" fold="1" page="1" pageScale="1" pageWidth="827" pageHeight="1169" math="0" shadow="0">
      <root>
        <mxCell id="WIyWlLk6GJQsqaUBKTNV-0" />
        <mxCell id="WIyWlLk6GJQsqaUBKTNV-1" parent="WIyWlLk6GJQsqaUBKTNV-0" />
        <mxCell id="jSwjRSck-oOny9UItXjr-2" style="edgeStyle=orthogonalEdgeStyle;rounded=0;orthogonalLoop=1;jettySize=auto;html=1;exitX=0.5;exitY=1;exitDx=0;exitDy=0;" edge="1" parent="WIyWlLk6GJQsqaUBKTNV-1" source="jSwjRSck-oOny9UItXjr-0" target="jSwjRSck-oOny9UItXjr-1">
          <mxGeometry relative="1" as="geometry" />
        </mxCell>
        <mxCell id="jSwjRSck-oOny9UItXjr-0" value="start the game!" style="rounded=0;whiteSpace=wrap;html=1;" vertex="1" parent="WIyWlLk6GJQsqaUBKTNV-1">
          <mxGeometry x="352" y="100" width="120" height="60" as="geometry" />
        </mxCell>
        <mxCell id="jSwjRSck-oOny9UItXjr-4" style="edgeStyle=orthogonalEdgeStyle;rounded=0;orthogonalLoop=1;jettySize=auto;html=1;exitX=0.5;exitY=1;exitDx=0;exitDy=0;" edge="1" parent="WIyWlLk6GJQsqaUBKTNV-1" source="jSwjRSck-oOny9UItXjr-1" target="jSwjRSck-oOny9UItXjr-3">
          <mxGeometry relative="1" as="geometry" />
        </mxCell>
        <mxCell id="jSwjRSck-oOny9UItXjr-1" value="give player and dealer 2 cars" style="rounded=1;whiteSpace=wrap;html=1;" vertex="1" parent="WIyWlLk6GJQsqaUBKTNV-1">
          <mxGeometry x="352" y="200" width="120" height="60" as="geometry" />
        </mxCell>
        <mxCell id="jSwjRSck-oOny9UItXjr-6" style="edgeStyle=orthogonalEdgeStyle;rounded=0;orthogonalLoop=1;jettySize=auto;html=1;exitX=0;exitY=0.5;exitDx=0;exitDy=0;entryX=0.5;entryY=0;entryDx=0;entryDy=0;" edge="1" parent="WIyWlLk6GJQsqaUBKTNV-1" source="jSwjRSck-oOny9UItXjr-3" target="jSwjRSck-oOny9UItXjr-5">
          <mxGeometry relative="1" as="geometry" />
        </mxCell>
        <mxCell id="jSwjRSck-oOny9UItXjr-7" value="No" style="edgeLabel;html=1;align=center;verticalAlign=middle;resizable=0;points=[];" vertex="1" connectable="0" parent="jSwjRSck-oOny9UItXjr-6">
          <mxGeometry x="0.2782" y="2" relative="1" as="geometry">
            <mxPoint as="offset" />
          </mxGeometry>
        </mxCell>
        <mxCell id="jSwjRSck-oOny9UItXjr-19" style="edgeStyle=orthogonalEdgeStyle;rounded=0;orthogonalLoop=1;jettySize=auto;html=1;exitX=1;exitY=0.5;exitDx=0;exitDy=0;entryX=0.5;entryY=0;entryDx=0;entryDy=0;" edge="1" parent="WIyWlLk6GJQsqaUBKTNV-1" source="jSwjRSck-oOny9UItXjr-3" target="jSwjRSck-oOny9UItXjr-16">
          <mxGeometry relative="1" as="geometry" />
        </mxCell>
        <mxCell id="jSwjRSck-oOny9UItXjr-21" value="Yes" style="edgeLabel;html=1;align=center;verticalAlign=middle;resizable=0;points=[];" vertex="1" connectable="0" parent="jSwjRSck-oOny9UItXjr-19">
          <mxGeometry x="0.5184" y="4" relative="1" as="geometry">
            <mxPoint y="1" as="offset" />
          </mxGeometry>
        </mxCell>
        <mxCell id="jSwjRSck-oOny9UItXjr-3" value="take another card?" style="rhombus;whiteSpace=wrap;html=1;" vertex="1" parent="WIyWlLk6GJQsqaUBKTNV-1">
          <mxGeometry x="335" y="320" width="154" height="80" as="geometry" />
        </mxCell>
        <mxCell id="jSwjRSck-oOny9UItXjr-9" style="edgeStyle=orthogonalEdgeStyle;rounded=0;orthogonalLoop=1;jettySize=auto;html=1;exitX=0.5;exitY=1;exitDx=0;exitDy=0;" edge="1" parent="WIyWlLk6GJQsqaUBKTNV-1" source="jSwjRSck-oOny9UItXjr-5" target="jSwjRSck-oOny9UItXjr-8">
          <mxGeometry relative="1" as="geometry" />
        </mxCell>
        <mxCell id="jSwjRSck-oOny9UItXjr-5" value="show dealers cards" style="rounded=1;whiteSpace=wrap;html=1;" vertex="1" parent="WIyWlLk6GJQsqaUBKTNV-1">
          <mxGeometry x="232" y="450" width="120" height="60" as="geometry" />
        </mxCell>
        <mxCell id="jSwjRSck-oOny9UItXjr-11" style="edgeStyle=orthogonalEdgeStyle;rounded=0;orthogonalLoop=1;jettySize=auto;html=1;exitX=1;exitY=0.5;exitDx=0;exitDy=0;" edge="1" parent="WIyWlLk6GJQsqaUBKTNV-1" source="jSwjRSck-oOny9UItXjr-8" target="jSwjRSck-oOny9UItXjr-10">
          <mxGeometry relative="1" as="geometry" />
        </mxCell>
        <mxCell id="jSwjRSck-oOny9UItXjr-12" value="No" style="edgeLabel;html=1;align=center;verticalAlign=middle;resizable=0;points=[];" vertex="1" connectable="0" parent="jSwjRSck-oOny9UItXjr-11">
          <mxGeometry x="0.1573" y="2" relative="1" as="geometry">
            <mxPoint as="offset" />
          </mxGeometry>
        </mxCell>
        <mxCell id="jSwjRSck-oOny9UItXjr-14" style="edgeStyle=orthogonalEdgeStyle;rounded=0;orthogonalLoop=1;jettySize=auto;html=1;exitX=0.5;exitY=1;exitDx=0;exitDy=0;entryX=0.5;entryY=0;entryDx=0;entryDy=0;" edge="1" parent="WIyWlLk6GJQsqaUBKTNV-1" source="jSwjRSck-oOny9UItXjr-8" target="jSwjRSck-oOny9UItXjr-13">
          <mxGeometry relative="1" as="geometry" />
        </mxCell>
        <mxCell id="jSwjRSck-oOny9UItXjr-15" value="Yes" style="edgeLabel;html=1;align=center;verticalAlign=middle;resizable=0;points=[];" vertex="1" connectable="0" parent="jSwjRSck-oOny9UItXjr-14">
          <mxGeometry x="-0.0278" y="-2" relative="1" as="geometry">
            <mxPoint as="offset" />
          </mxGeometry>
        </mxCell>
        <mxCell id="jSwjRSck-oOny9UItXjr-8" value="Higher?" style="rhombus;whiteSpace=wrap;html=1;" vertex="1" parent="WIyWlLk6GJQsqaUBKTNV-1">
          <mxGeometry x="220" y="580" width="144" height="80" as="geometry" />
        </mxCell>
        <mxCell id="jSwjRSck-oOny9UItXjr-27" style="edgeStyle=orthogonalEdgeStyle;rounded=0;orthogonalLoop=1;jettySize=auto;html=1;exitX=0.5;exitY=1;exitDx=0;exitDy=0;entryX=0.5;entryY=0;entryDx=0;entryDy=0;" edge="1" parent="WIyWlLk6GJQsqaUBKTNV-1" source="jSwjRSck-oOny9UItXjr-10" target="jSwjRSck-oOny9UItXjr-26">
          <mxGeometry relative="1" as="geometry" />
        </mxCell>
        <mxCell id="jSwjRSck-oOny9UItXjr-10" value="Loose!" style="rounded=1;whiteSpace=wrap;html=1;" vertex="1" parent="WIyWlLk6GJQsqaUBKTNV-1">
          <mxGeometry x="418" y="750" width="120" height="60" as="geometry" />
        </mxCell>
        <mxCell id="jSwjRSck-oOny9UItXjr-28" style="edgeStyle=orthogonalEdgeStyle;rounded=0;orthogonalLoop=1;jettySize=auto;html=1;entryX=0.5;entryY=0;entryDx=0;entryDy=0;" edge="1" parent="WIyWlLk6GJQsqaUBKTNV-1" source="jSwjRSck-oOny9UItXjr-13" target="jSwjRSck-oOny9UItXjr-26">
          <mxGeometry relative="1" as="geometry" />
        </mxCell>
        <mxCell id="jSwjRSck-oOny9UItXjr-13" value="Win!" style="rounded=1;whiteSpace=wrap;html=1;" vertex="1" parent="WIyWlLk6GJQsqaUBKTNV-1">
          <mxGeometry x="286" y="750" width="120" height="60" as="geometry" />
        </mxCell>
        <mxCell id="jSwjRSck-oOny9UItXjr-22" style="edgeStyle=orthogonalEdgeStyle;rounded=0;orthogonalLoop=1;jettySize=auto;html=1;exitX=0.5;exitY=1;exitDx=0;exitDy=0;entryX=1;entryY=0.5;entryDx=0;entryDy=0;" edge="1" parent="WIyWlLk6GJQsqaUBKTNV-1" source="jSwjRSck-oOny9UItXjr-16" target="jSwjRSck-oOny9UItXjr-10">
          <mxGeometry relative="1" as="geometry" />
        </mxCell>
        <mxCell id="jSwjRSck-oOny9UItXjr-23" value="Yes" style="edgeLabel;html=1;align=center;verticalAlign=middle;resizable=0;points=[];" vertex="1" connectable="0" parent="jSwjRSck-oOny9UItXjr-22">
          <mxGeometry x="-0.2048" y="-4" relative="1" as="geometry">
            <mxPoint as="offset" />
          </mxGeometry>
        </mxCell>
        <mxCell id="jSwjRSck-oOny9UItXjr-24" style="edgeStyle=orthogonalEdgeStyle;rounded=0;orthogonalLoop=1;jettySize=auto;html=1;exitX=0;exitY=0.5;exitDx=0;exitDy=0;" edge="1" parent="WIyWlLk6GJQsqaUBKTNV-1" source="jSwjRSck-oOny9UItXjr-16" target="jSwjRSck-oOny9UItXjr-3">
          <mxGeometry relative="1" as="geometry" />
        </mxCell>
        <mxCell id="jSwjRSck-oOny9UItXjr-25" value="No" style="edgeLabel;html=1;align=center;verticalAlign=middle;resizable=0;points=[];" vertex="1" connectable="0" parent="jSwjRSck-oOny9UItXjr-24">
          <mxGeometry x="-0.3673" relative="1" as="geometry">
            <mxPoint as="offset" />
          </mxGeometry>
        </mxCell>
        <mxCell id="jSwjRSck-oOny9UItXjr-16" value="Higher than 21?" style="rhombus;whiteSpace=wrap;html=1;" vertex="1" parent="WIyWlLk6GJQsqaUBKTNV-1">
          <mxGeometry x="528" y="440" width="169" height="80" as="geometry" />
        </mxCell>
        <mxCell id="jSwjRSck-oOny9UItXjr-29" style="edgeStyle=orthogonalEdgeStyle;rounded=0;orthogonalLoop=1;jettySize=auto;html=1;entryX=0;entryY=0.5;entryDx=0;entryDy=0;" edge="1" parent="WIyWlLk6GJQsqaUBKTNV-1" source="jSwjRSck-oOny9UItXjr-26" target="jSwjRSck-oOny9UItXjr-1">
          <mxGeometry relative="1" as="geometry">
            <mxPoint x="150" y="230" as="targetPoint" />
            <Array as="points">
              <mxPoint x="130" y="940" />
              <mxPoint x="130" y="230" />
            </Array>
          </mxGeometry>
        </mxCell>
        <mxCell id="jSwjRSck-oOny9UItXjr-30" value="Yes" style="edgeLabel;html=1;align=center;verticalAlign=middle;resizable=0;points=[];" vertex="1" connectable="0" parent="jSwjRSck-oOny9UItXjr-29">
          <mxGeometry x="-0.849" y="3" relative="1" as="geometry">
            <mxPoint x="-5" y="-4" as="offset" />
          </mxGeometry>
        </mxCell>
        <mxCell id="jSwjRSck-oOny9UItXjr-32" style="edgeStyle=orthogonalEdgeStyle;rounded=0;orthogonalLoop=1;jettySize=auto;html=1;exitX=0.5;exitY=1;exitDx=0;exitDy=0;entryX=0.5;entryY=0;entryDx=0;entryDy=0;" edge="1" parent="WIyWlLk6GJQsqaUBKTNV-1" source="jSwjRSck-oOny9UItXjr-26" target="jSwjRSck-oOny9UItXjr-31">
          <mxGeometry relative="1" as="geometry" />
        </mxCell>
        <mxCell id="jSwjRSck-oOny9UItXjr-33" value="No" style="edgeLabel;html=1;align=center;verticalAlign=middle;resizable=0;points=[];" vertex="1" connectable="0" parent="jSwjRSck-oOny9UItXjr-32">
          <mxGeometry x="-0.08" y="-4" relative="1" as="geometry">
            <mxPoint x="3" as="offset" />
          </mxGeometry>
        </mxCell>
        <mxCell id="jSwjRSck-oOny9UItXjr-26" value="another round?" style="rhombus;whiteSpace=wrap;html=1;" vertex="1" parent="WIyWlLk6GJQsqaUBKTNV-1">
          <mxGeometry x="324" y="900" width="176" height="80" as="geometry" />
        </mxCell>
        <mxCell id="jSwjRSck-oOny9UItXjr-31" value="End the Game!" style="rounded=0;whiteSpace=wrap;html=1;" vertex="1" parent="WIyWlLk6GJQsqaUBKTNV-1">
          <mxGeometry x="352" y="1030" width="120" height="60" as="geometry" />
        </mxCell>
      </root>
    </mxGraphModel>
  </diagram>
</mxfile>
